<svg width="192" height="64" viewBox="0 0 192 64" fill="none" xmlns="http://www.w3.org/2000/svg">
<path d="M47.0002 63.4502H0V16.45H11.7501V51.7001H47.0002V63.4502Z" fill="#19D6BA"/>
<path d="M0.000244141 0H47.0005V47.0002H35.2504V11.7501H0.000244141V0Z" fill="#19D6BA"/>
<path d="M23.4191 23.6222H19.5075V27.3509H16.0321V30.2354H19.5075V37.1581C19.5075 38.1617 19.6388 39.0247 19.9015 39.747C20.1641 40.4599 20.5393 41.0462 21.0271 41.5058C21.5055 41.9749 22.0824 42.3219 22.7578 42.5471C23.4425 42.7628 24.2024 42.8707 25.0372 42.8707C25.4687 42.8707 25.9049 42.8472 26.3458 42.8003C26.796 42.7628 27.2275 42.7065 27.6402 42.6315C28.053 42.5564 28.4423 42.4626 28.8081 42.3501C29.1739 42.2281 29.4929 42.0874 29.7649 41.928L29.385 39.2405C29.2068 39.2874 28.991 39.3343 28.7377 39.3812C28.4939 39.4281 28.2312 39.4703 27.9498 39.5078C27.659 39.5547 27.3541 39.5922 27.0352 39.6204C26.7257 39.6485 26.4208 39.6626 26.1206 39.6626C25.7079 39.6626 25.3327 39.6157 24.995 39.5219C24.6667 39.4281 24.3853 39.2686 24.1508 39.0435C23.9163 38.8278 23.7333 38.537 23.602 38.1711C23.4801 37.7959 23.4191 37.3316 23.4191 36.7781V30.2354H29.1036V27.3509H23.4191V23.6222Z" fill="#19D6BA"/>
<path d="M65.3579 25.8457H62.6431V28.4336H60.231L60.231 30.4355H62.6431V35.2402C62.6431 35.9368 62.7342 36.5358 62.9165 37.0371C63.0988 37.5319 63.3592 37.9388 63.6978 38.2578C64.0298 38.5833 64.4302 38.8242 64.8989 38.9805C65.3742 39.1302 65.9015 39.2051 66.481 39.2051C66.7804 39.2051 67.0832 39.1888 67.3892 39.1562C67.7017 39.1302 68.0011 39.0911 68.2876 39.0391C68.5741 38.987 68.8442 38.9219 69.0981 38.8437C69.3521 38.7591 69.5734 38.6615 69.7622 38.5508L69.4985 36.6855C69.3748 36.7181 69.2251 36.7506 69.0493 36.7832C68.88 36.8158 68.6978 36.8451 68.5024 36.8711C68.3006 36.9036 68.089 36.9297 67.8677 36.9492C67.6528 36.9687 67.4412 36.9785 67.2329 36.9785C66.9465 36.9785 66.686 36.946 66.4517 36.8809C66.2238 36.8158 66.0285 36.7051 65.8657 36.5488C65.703 36.3991 65.576 36.1973 65.4849 35.9434C65.4002 35.6829 65.3579 35.3607 65.3579 34.9766V30.4355H69.3032V28.4336H65.3579V25.8457ZM77.5161 39.1953C78.5382 39.1953 79.4237 38.9967 80.1724 38.5996C80.9211 38.2025 81.4679 37.7598 81.813 37.2715L80.4556 35.8066C80.1431 36.2103 79.7362 36.513 79.2349 36.7148C78.7336 36.9167 78.216 37.0176 77.6821 37.0176C77.3045 37.0176 76.9562 36.959 76.6372 36.8418C76.3182 36.7246 76.035 36.5586 75.7876 36.3437C75.5467 36.1354 75.3547 35.9043 75.2114 35.6504C75.0682 35.39 74.951 35.0482 74.8599 34.625V34.5957H82.0278V33.4434C82.0278 32.6686 81.9204 31.9622 81.7056 31.3242C81.4907 30.6797 81.1782 30.1296 80.7681 29.6738C80.3514 29.2181 79.8436 28.8665 79.2446 28.6191C78.6522 28.3652 77.9751 28.2383 77.2134 28.2383C76.4777 28.2383 75.7974 28.3717 75.1724 28.6387C74.5474 28.9056 74.007 29.2799 73.5513 29.7617C73.0955 30.2435 72.7407 30.8197 72.4868 31.4902C72.2329 32.1543 72.106 32.89 72.106 33.6973V34.0879C72.106 34.7975 72.2329 35.4648 72.4868 36.0898C72.7472 36.7083 73.1151 37.2454 73.5903 37.7012C74.0656 38.1634 74.6353 38.528 75.2993 38.7949C75.9634 39.0618 76.7023 39.1953 77.5161 39.1953ZM77.1938 30.4355C77.5389 30.4355 77.8416 30.4909 78.102 30.6016C78.369 30.7057 78.5936 30.849 78.7759 31.0312C78.9582 31.2201 79.1014 31.4414 79.2056 31.6953C79.3097 31.9492 79.3618 32.2194 79.3618 32.5059V32.7207H74.9087C74.9738 32.3757 75.0715 32.0632 75.2017 31.7832C75.3319 31.5033 75.4946 31.2624 75.6899 31.0605C75.8787 30.8587 76.1001 30.7057 76.354 30.6016C76.6079 30.4909 76.8879 30.4355 77.1938 30.4355ZM84.1177 33.6387V33.8437C84.1177 34.612 84.2121 35.3249 84.4009 35.9824C84.5897 36.6335 84.8631 37.1966 85.2212 37.6719C85.5728 38.1471 86.0024 38.5215 86.5103 38.7949C87.0246 39.0618 87.604 39.1953 88.2485 39.1953C88.841 39.1953 89.3618 39.0814 89.811 38.8535C90.2603 38.6256 90.6509 38.3066 90.9829 37.8965L91.1196 39H93.5708V24H90.8462V29.3809C90.5207 29.0163 90.1463 28.7363 89.7231 28.541C89.3065 28.3392 88.8215 28.2383 88.2681 28.2383C87.6105 28.2383 87.0246 28.3685 86.5103 28.6289C86.0024 28.8893 85.5695 29.2572 85.2114 29.7324C84.8534 30.2077 84.5799 30.7773 84.3911 31.4414C84.2088 32.1055 84.1177 32.8379 84.1177 33.6387ZM86.8325 33.8437V33.6387C86.8325 33.196 86.8716 32.7826 86.9497 32.3984C87.0278 32.0078 87.1515 31.666 87.3208 31.373C87.4901 31.0866 87.7082 30.862 87.9751 30.6992C88.2485 30.5299 88.5773 30.4453 88.9614 30.4453C89.4237 30.4453 89.8078 30.5462 90.1138 30.748C90.4198 30.9434 90.6639 31.2201 90.8462 31.5781V35.8555C90.6639 36.207 90.4165 36.4837 90.104 36.6855C89.798 36.8874 89.4106 36.9883 88.9419 36.9883C88.5578 36.9883 88.2323 36.9069 87.9653 36.7441C87.6984 36.5814 87.4803 36.3568 87.311 36.0703C87.1418 35.7904 87.0181 35.4616 86.9399 35.084C86.8683 34.6999 86.8325 34.2865 86.8325 33.8437ZM96.1294 33.6387V33.8437C96.1294 34.612 96.2238 35.3249 96.4126 35.9824C96.6014 36.6335 96.8748 37.1966 97.2329 37.6719C97.5845 38.1471 98.0142 38.5215 98.522 38.7949C99.0363 39.0618 99.6157 39.1953 100.26 39.1953C100.853 39.1953 101.374 39.0814 101.823 38.8535C102.272 38.6256 102.663 38.3066 102.995 37.8965L103.131 39H105.583V24H102.858V29.3809C102.532 29.0163 102.158 28.7363 101.735 28.541C101.318 28.3392 100.833 28.2383 100.28 28.2383C99.6222 28.2383 99.0363 28.3685 98.522 28.6289C98.0142 28.8893 97.5812 29.2572 97.2231 29.7324C96.8651 30.2077 96.5916 30.7773 96.4028 31.4414C96.2205 32.1055 96.1294 32.8379 96.1294 33.6387ZM98.8442 33.8437V33.6387C98.8442 33.196 98.8833 32.7826 98.9614 32.3984C99.0395 32.0078 99.1632 31.666 99.3325 31.373C99.5018 31.0866 99.7199 30.862 99.9868 30.6992C100.26 30.5299 100.589 30.4453 100.973 30.4453C101.435 30.4453 101.819 30.5462 102.125 30.748C102.431 30.9434 102.676 31.2201 102.858 31.5781V35.8555C102.676 36.207 102.428 36.4837 102.116 36.6855C101.81 36.8874 101.422 36.9883 100.954 36.9883C100.569 36.9883 100.244 36.9069 99.977 36.7441C99.7101 36.5814 99.492 36.3568 99.3228 36.0703C99.1535 35.7904 99.0298 35.4616 98.9517 35.084C98.88 34.6999 98.8442 34.2865 98.8442 33.8437ZM108.991 24V26.2168H112.155V36.793H108.991V39H117.926V36.793H114.899V24H108.991ZM125.563 39.1953C126.585 39.1953 127.471 38.9967 128.219 38.5996C128.968 38.2025 129.515 37.7598 129.86 37.2715L128.502 35.8066C128.19 36.2103 127.783 36.513 127.282 36.7148C126.78 36.9167 126.263 37.0176 125.729 37.0176C125.351 37.0176 125.003 36.959 124.684 36.8418C124.365 36.7246 124.082 36.5586 123.834 36.3437C123.594 36.1354 123.402 35.9043 123.258 35.6504C123.115 35.39 122.998 35.0482 122.907 34.625V34.5957H130.075V33.4434C130.075 32.6686 129.967 31.9622 129.752 31.3242C129.538 30.6797 129.225 30.1296 128.815 29.6738C128.398 29.2181 127.89 28.8665 127.291 28.6191C126.699 28.3652 126.022 28.2383 125.26 28.2383C124.525 28.2383 123.844 28.3717 123.219 28.6387C122.594 28.9056 122.054 29.2799 121.598 29.7617C121.142 30.2435 120.788 30.8197 120.534 31.4902C120.28 32.1543 120.153 32.89 120.153 33.6973V34.0879C120.153 34.7975 120.28 35.4648 120.534 36.0898C120.794 36.7083 121.162 37.2454 121.637 37.7012C122.112 38.1634 122.682 38.528 123.346 38.7949C124.01 39.0618 124.749 39.1953 125.563 39.1953ZM125.241 30.4355C125.586 30.4355 125.889 30.4909 126.149 30.6016C126.416 30.7057 126.64 30.849 126.823 31.0312C127.005 31.2201 127.148 31.4414 127.252 31.6953C127.357 31.9492 127.409 32.2194 127.409 32.5059V32.7207H122.956C123.021 32.3757 123.118 32.0632 123.249 31.7832C123.379 31.5033 123.542 31.2624 123.737 31.0605C123.926 30.8587 124.147 30.7057 124.401 30.6016C124.655 30.4909 124.935 30.4355 125.241 30.4355ZM137.125 37.0273C136.689 37.0273 136.328 36.9395 136.041 36.7637C135.762 36.5879 135.54 36.3535 135.377 36.0605C135.208 35.7741 135.091 35.4421 135.026 35.0645C134.961 34.6803 134.928 34.2832 134.928 33.873V33.5801C134.928 33.1764 134.961 32.7858 135.026 32.4082C135.097 32.0306 135.218 31.6953 135.387 31.4023C135.55 31.1094 135.771 30.875 136.051 30.6992C136.331 30.5234 136.686 30.4355 137.116 30.4355C137.409 30.4355 137.679 30.4876 137.926 30.5918C138.174 30.6895 138.385 30.8229 138.561 30.9922C138.737 31.1615 138.87 31.3633 138.961 31.5977C139.053 31.832 139.092 32.0794 139.079 32.3398H141.637C141.65 31.7148 141.546 31.1517 141.325 30.6504C141.103 30.1426 140.794 29.7096 140.397 29.3516C139.993 29 139.515 28.7266 138.961 28.5312C138.408 28.3359 137.806 28.2383 137.155 28.2383C136.341 28.2383 135.625 28.3783 135.006 28.6582C134.394 28.9382 133.88 29.319 133.463 29.8008C133.047 30.2826 132.734 30.849 132.526 31.5C132.318 32.1445 132.213 32.8379 132.213 33.5801V33.873C132.213 34.6152 132.318 35.3118 132.526 35.9629C132.741 36.6074 133.056 37.1706 133.473 37.6523C133.883 38.1341 134.398 38.515 135.016 38.7949C135.635 39.0684 136.354 39.2051 137.174 39.2051C137.78 39.2051 138.353 39.1107 138.893 38.9219C139.44 38.7266 139.918 38.4596 140.329 38.1211C140.739 37.7826 141.061 37.3789 141.295 36.9102C141.536 36.4414 141.65 35.9336 141.637 35.3867H139.079C139.092 35.6341 139.046 35.8587 138.942 36.0605C138.844 36.2624 138.704 36.4349 138.522 36.5781C138.34 36.7214 138.128 36.832 137.887 36.9102C137.646 36.9883 137.392 37.0273 137.125 37.0273ZM144.088 33.6191V33.8242C144.088 34.599 144.199 35.3151 144.42 35.9727C144.642 36.6237 144.967 37.1901 145.397 37.6719C145.82 38.1536 146.341 38.5312 146.959 38.8047C147.584 39.0716 148.294 39.2051 149.088 39.2051C149.876 39.2051 150.579 39.0716 151.198 38.8047C151.816 38.5312 152.337 38.1536 152.76 37.6719C153.183 37.1901 153.506 36.6237 153.727 35.9727C153.948 35.3151 154.059 34.599 154.059 33.8242V33.6191C154.059 32.8509 153.948 32.1413 153.727 31.4902C153.506 30.8327 153.183 30.263 152.76 29.7812C152.331 29.2995 151.806 28.9219 151.188 28.6484C150.569 28.375 149.863 28.2383 149.069 28.2383C148.275 28.2383 147.568 28.375 146.95 28.6484C146.338 28.9219 145.82 29.2995 145.397 29.7812C144.967 30.263 144.642 30.8327 144.42 31.4902C144.199 32.1413 144.088 32.8509 144.088 33.6191ZM146.803 33.8242V33.6191C146.803 33.1895 146.846 32.7826 146.93 32.3984C147.015 32.0143 147.148 31.6758 147.331 31.3828C147.513 31.0898 147.747 30.8587 148.034 30.6895C148.32 30.5202 148.665 30.4355 149.069 30.4355C149.479 30.4355 149.827 30.5202 150.114 30.6895C150.4 30.8587 150.635 31.0898 150.817 31.3828C150.993 31.6758 151.123 32.0143 151.208 32.3984C151.292 32.7826 151.334 33.1895 151.334 33.6191V33.8242C151.334 34.2669 151.292 34.6836 151.208 35.0742C151.123 35.4583 150.993 35.7936 150.817 36.0801C150.635 36.373 150.4 36.6042 150.114 36.7734C149.827 36.9427 149.486 37.0273 149.088 37.0273C148.678 37.0273 148.327 36.9427 148.034 36.7734C147.747 36.6042 147.513 36.373 147.331 36.0801C147.148 35.7936 147.015 35.4583 146.93 35.0742C146.846 34.6836 146.803 34.2669 146.803 33.8242ZM156.188 33.6387V33.8437C156.188 34.612 156.282 35.3249 156.471 35.9824C156.66 36.6335 156.933 37.1966 157.291 37.6719C157.643 38.1471 158.073 38.5215 158.581 38.7949C159.095 39.0618 159.674 39.1953 160.319 39.1953C160.911 39.1953 161.432 39.0814 161.881 38.8535C162.331 38.6256 162.721 38.3066 163.053 37.8965L163.19 39H165.641V24H162.916V29.3809C162.591 29.0163 162.217 28.7363 161.793 28.541C161.377 28.3392 160.892 28.2383 160.338 28.2383C159.681 28.2383 159.095 28.3685 158.581 28.6289C158.073 28.8893 157.64 29.2572 157.282 29.7324C156.924 30.2077 156.65 30.7773 156.461 31.4414C156.279 32.1055 156.188 32.8379 156.188 33.6387ZM158.903 33.8437V33.6387C158.903 33.196 158.942 32.7826 159.02 32.3984C159.098 32.0078 159.222 31.666 159.391 31.373C159.56 31.0866 159.778 30.862 160.045 30.6992C160.319 30.5299 160.648 30.4453 161.032 30.4453C161.494 30.4453 161.878 30.5462 162.184 30.748C162.49 30.9434 162.734 31.2201 162.916 31.5781V35.8555C162.734 36.207 162.487 36.4837 162.174 36.6855C161.868 36.8874 161.481 36.9883 161.012 36.9883C160.628 36.9883 160.303 36.9069 160.036 36.7441C159.769 36.5814 159.551 36.3568 159.381 36.0703C159.212 35.7904 159.088 35.4616 159.01 35.084C158.939 34.6999 158.903 34.2865 158.903 33.8437ZM173.61 39.1953C174.632 39.1953 175.517 38.9967 176.266 38.5996C177.015 38.2025 177.562 37.7598 177.907 37.2715L176.549 35.8066C176.237 36.2103 175.83 36.513 175.329 36.7148C174.827 36.9167 174.31 37.0176 173.776 37.0176C173.398 37.0176 173.05 36.959 172.731 36.8418C172.412 36.7246 172.129 36.5586 171.881 36.3437C171.64 36.1354 171.448 35.9043 171.305 35.6504C171.162 35.39 171.045 35.0482 170.954 34.625V34.5957H178.122V33.4434C178.122 32.6686 178.014 31.9622 177.799 31.3242C177.584 30.6797 177.272 30.1296 176.862 29.6738C176.445 29.2181 175.937 28.8665 175.338 28.6191C174.746 28.3652 174.069 28.2383 173.307 28.2383C172.571 28.2383 171.891 28.3717 171.266 28.6387C170.641 28.9056 170.101 29.2799 169.645 29.7617C169.189 30.2435 168.834 30.8197 168.581 31.4902C168.327 32.1543 168.2 32.89 168.2 33.6973V34.0879C168.2 34.7975 168.327 35.4648 168.581 36.0898C168.841 36.7083 169.209 37.2454 169.684 37.7012C170.159 38.1634 170.729 38.528 171.393 38.7949C172.057 39.0618 172.796 39.1953 173.61 39.1953ZM173.288 30.4355C173.633 30.4355 173.935 30.4909 174.196 30.6016C174.463 30.7057 174.687 30.849 174.87 31.0312C175.052 31.2201 175.195 31.4414 175.299 31.6953C175.403 31.9492 175.456 32.2194 175.456 32.5059V32.7207H171.002C171.068 32.3757 171.165 32.0632 171.295 31.7832C171.426 31.5033 171.588 31.2624 171.784 31.0605C171.972 30.8587 172.194 30.7057 172.448 30.6016C172.702 30.4909 172.982 30.4355 173.288 30.4355ZM187.311 36.0996C187.311 36.2624 187.269 36.4121 187.184 36.5488C187.106 36.6855 186.986 36.806 186.823 36.9102C186.653 37.0143 186.435 37.099 186.168 37.1641C185.908 37.2227 185.602 37.252 185.25 37.252C184.958 37.252 184.671 37.2227 184.391 37.1641C184.118 37.1055 183.874 37.0111 183.659 36.8809C183.444 36.7572 183.268 36.5944 183.131 36.3926C182.995 36.1842 182.916 35.9368 182.897 35.6504H180.309C180.309 36.0801 180.413 36.5098 180.622 36.9395C180.836 37.3626 181.149 37.7402 181.559 38.0723C181.969 38.4108 182.477 38.6842 183.083 38.8926C183.694 39.1009 184.398 39.2051 185.192 39.2051C185.915 39.2051 186.569 39.127 187.155 38.9707C187.741 38.8079 188.242 38.5833 188.659 38.2969C189.069 38.0104 189.385 37.6719 189.606 37.2812C189.834 36.8841 189.948 36.4512 189.948 35.9824C189.948 35.4746 189.834 35.0384 189.606 34.6738C189.385 34.3027 189.075 33.987 188.678 33.7266C188.281 33.4727 187.809 33.2643 187.262 33.1016C186.715 32.9388 186.123 32.8053 185.485 32.7012C185.042 32.6361 184.678 32.5612 184.391 32.4766C184.105 32.3854 183.88 32.2845 183.717 32.1738C183.548 32.0697 183.431 31.9525 183.366 31.8223C183.301 31.6855 183.268 31.5391 183.268 31.3828C183.268 31.2266 183.304 31.0801 183.375 30.9434C183.454 30.8001 183.564 30.6764 183.708 30.5723C183.864 30.4551 184.066 30.3639 184.313 30.2988C184.56 30.2337 184.85 30.2012 185.182 30.2012C185.573 30.2012 185.905 30.25 186.178 30.3477C186.458 30.4453 186.68 30.5755 186.842 30.7383C186.959 30.862 187.047 31.002 187.106 31.1582C187.165 31.3079 187.194 31.4707 187.194 31.6465H189.909C189.909 31.1582 189.801 30.7057 189.586 30.2891C189.372 29.8724 189.062 29.5111 188.659 29.2051C188.249 28.9056 187.75 28.6712 187.165 28.502C186.579 28.3262 185.918 28.2383 185.182 28.2383C184.479 28.2383 183.847 28.3262 183.288 28.502C182.728 28.6777 182.252 28.9154 181.862 29.2148C181.471 29.5143 181.172 29.8626 180.963 30.2598C180.755 30.6569 180.651 31.0736 180.651 31.5098C180.651 31.959 180.752 32.3561 180.954 32.7012C181.162 33.0462 181.448 33.349 181.813 33.6094C182.178 33.8763 182.614 34.1042 183.122 34.293C183.636 34.4753 184.202 34.6283 184.821 34.752C185.309 34.8431 185.713 34.9342 186.032 35.0254C186.351 35.1165 186.608 35.2142 186.803 35.3184C186.992 35.429 187.122 35.5462 187.194 35.6699C187.272 35.7936 187.311 35.9368 187.311 36.0996Z" fill="#DFE7E6"/>
</svg>
