<svg width="26" height="36" viewBox="0 0 26 36" fill="none" xmlns="http://www.w3.org/2000/svg">
<path d="M25.9997 35.0996H0V9.09995H6.49992V28.5997H25.9997V35.0996Z" fill="#19D6BA"/>
<path d="M0.000339508 0H26V25.9997H19.5001V6.49992H0.000339508V0Z" fill="#19D6BA"/>
<path d="M12.9721 12.7297H10.677V14.9176H8.63772V16.61H10.677V20.672C10.677 21.2609 10.754 21.7673 10.9081 22.1911C11.0622 22.6094 11.2824 22.9534 11.5686 23.2231C11.8493 23.4983 12.1878 23.702 12.5841 23.8341C12.9859 23.9607 13.4317 24.024 13.9216 24.024C14.1748 24.024 14.4307 24.0102 14.6894 23.9827C14.9536 23.9607 15.2068 23.9276 15.4489 23.8836C15.6911 23.8396 15.9195 23.7845 16.1342 23.7185C16.3489 23.6469 16.536 23.5644 16.6956 23.4708L16.4727 21.8939C16.3681 21.9214 16.2415 21.9489 16.0929 21.9765C15.9498 22.004 15.7957 22.0288 15.6306 22.0508C15.46 22.0783 15.2811 22.1003 15.0939 22.1168C14.9123 22.1333 14.7334 22.1416 14.5573 22.1416C14.3151 22.1416 14.095 22.1141 13.8968 22.059C13.7042 22.004 13.5391 21.9104 13.4015 21.7783C13.2639 21.6517 13.1565 21.4811 13.0795 21.2664C13.0079 21.0463 12.9721 20.7738 12.9721 20.4491V16.61H16.3076V14.9176H12.9721V12.7297Z" fill="#19D6BA"/>
</svg>
