<svg width="31" height="30" viewBox="0 0 31 30" fill="none" xmlns="http://www.w3.org/2000/svg">
<g opacity="0.7">
<path d="M15.5001 0.599609C7.28202 0.599609 0.620117 7.04661 0.620117 14.9996C0.620117 22.9526 7.28202 29.3996 15.5001 29.3996C23.7182 29.3996 30.3801 22.9526 30.3801 14.9996C30.3801 7.04661 23.7182 0.599609 15.5001 0.599609ZM11.8576 20.9681H8.84442V11.5841H11.8576V20.9681ZM10.3324 10.4321C9.38072 10.4321 8.76537 9.77961 8.76537 8.97261C8.76537 8.14911 9.39932 7.51611 10.3712 7.51611C11.343 7.51611 11.9382 8.14911 11.9568 8.97261C11.9568 9.77961 11.343 10.4321 10.3324 10.4321ZM22.8626 20.9681H19.8494V15.7676C19.8494 14.5571 19.4123 13.7351 18.3227 13.7351C17.4903 13.7351 16.9959 14.2916 16.7773 14.8271C16.6967 15.0176 16.6766 15.2876 16.6766 15.5561V20.9666H13.6618V14.5766C13.6618 13.4051 13.6231 12.4256 13.5828 11.5826H16.2007L16.3387 12.8861H16.3991C16.7959 12.2741 17.7678 11.3711 19.3937 11.3711C21.3762 11.3711 22.8626 12.6566 22.8626 15.4196V20.9681Z" fill="#DFE7E6"/>
</g>
</svg>
