<svg width="30" height="30" viewBox="0 0 30 30" fill="none" xmlns="http://www.w3.org/2000/svg">
<g opacity="0.7">
<path d="M14.9996 0.599609C7.04661 0.599609 0.599609 7.04661 0.599609 14.9996C0.599609 22.9526 7.04661 29.3996 14.9996 29.3996C22.9526 29.3996 29.3996 22.9526 29.3996 14.9996C29.3996 7.04661 22.9526 0.599609 14.9996 0.599609ZM20.8571 12.3956C20.8631 12.5186 20.8646 12.6416 20.8646 12.7616C20.8646 16.5116 18.0131 20.8331 12.7961 20.8331C11.2546 20.8357 9.74506 20.3929 8.44911 19.5581C8.66961 19.5851 8.89611 19.5956 9.12561 19.5956C10.4546 19.5956 11.6771 19.1441 12.6476 18.3821C12.0562 18.3705 11.4831 18.1747 11.0083 17.8219C10.5334 17.4691 10.1805 16.977 9.99861 16.4141C10.4233 16.4949 10.8609 16.4779 11.2781 16.3646C10.6362 16.2348 10.0589 15.887 9.64417 15.3801C9.22944 14.8732 9.00277 14.2385 9.00261 13.5836V13.5491C9.38511 13.7606 9.82311 13.8896 10.2881 13.9046C9.68631 13.504 9.26029 12.8886 9.09718 12.1843C8.93407 11.48 9.04619 10.74 9.41061 10.1156C10.123 10.9916 11.0115 11.7082 12.0185 12.2191C13.0254 12.7299 14.1284 13.0236 15.2561 13.0811C15.1127 12.4726 15.1744 11.8337 15.4316 11.2639C15.6888 10.694 16.127 10.2251 16.6782 9.93001C17.2294 9.63492 17.8626 9.53019 18.4795 9.63212C19.0963 9.73404 19.6622 10.0369 20.0891 10.4936C20.7239 10.368 21.3326 10.1352 21.8891 9.80511C21.6776 10.4623 21.2346 11.0204 20.6426 11.3756C21.2049 11.3079 21.7539 11.1567 22.2716 10.9271C21.8913 11.497 21.4123 11.9943 20.8571 12.3956Z" fill="#DFE7E6"/>
</g>
</svg>
